<?xml version="1.0"?>
<svg xmlns="http://www.w3.org/2000/svg" xmlns:xlink="http://www.w3.org/1999/xlink" xmlns:svgjs="http://svgjs.com/svgjs" version="1.1" width="512" height="512" x="0" y="0" viewBox="0 0 512 512" style="enable-background:new 0 0 512 512" xml:space="preserve" class=""><g>
<g xmlns="http://www.w3.org/2000/svg">
	<g>
		<path d="M399.624,229.53H113.345c-4.025,0-7.287,3.262-7.287,7.287c0,4.024,3.262,7.287,7.287,7.287h286.279    c4.025-0.001,7.287-3.263,7.287-7.287C406.911,232.793,403.65,229.53,399.624,229.53z" fill="#1a1a1a" data-original="#000000" style="" class=""/>
	</g>
</g>
<g xmlns="http://www.w3.org/2000/svg">
	<g>
		<path d="M248.798,304.72H113.345c-4.025,0-7.287,3.262-7.287,7.287c0,4.024,3.262,7.287,7.287,7.287h135.454    c4.024-0.001,7.286-3.263,7.286-7.287C256.085,307.983,252.824,304.72,248.798,304.72z" fill="#1a1a1a" data-original="#000000" style="" class=""/>
	</g>
</g>
<g xmlns="http://www.w3.org/2000/svg">
	<g>
		<path d="M278.431,455.098H113.345c-4.025,0-7.287,3.262-7.287,7.287c0,4.025,3.263,7.287,7.287,7.287h165.085    c4.025,0,7.287-3.262,7.287-7.287C285.717,458.36,282.455,455.098,278.431,455.098z" fill="#1a1a1a" data-original="#000000" style="" class=""/>
	</g>
</g>
<g xmlns="http://www.w3.org/2000/svg">
	<g>
		<path d="M238.493,103.893l-60.929-57.239c-2.805-2.635-7.175-2.634-9.977,0l-60.931,57.238c-2.934,2.755-3.078,7.367-0.323,10.3    c2.758,2.934,7.369,3.077,10.3,0.322l55.942-52.551l55.941,52.551c1.406,1.321,3.198,1.976,4.987,1.976    c1.942,0,3.879-0.771,5.313-2.297C241.571,111.26,241.428,106.648,238.493,103.893z" fill="#1a1a1a" data-original="#000000" style="" class=""/>
	</g>
</g>
<g xmlns="http://www.w3.org/2000/svg">
	<g>
		<path d="M218.119,113.287L180.824,78.25c-4.624-4.344-11.871-4.344-16.495,0l-37.294,35.034c-2.416,2.267-3.801,5.468-3.801,8.782    v50.966c-0.001,6.642,5.404,12.046,12.046,12.046h74.592c6.642,0,12.046-5.404,12.046-12.046v-50.966    C221.917,118.754,220.533,115.554,218.119,113.287z M177.918,170.505h-10.687v-25.26h10.687V170.505z M207.343,170.505h-14.852    v-29.877c0-5.49-4.467-9.956-9.956-9.956h-19.921c-5.49,0-9.955,4.466-9.955,9.956v29.877h-14.853v-47.346h-0.001l34.769-32.662    l34.769,32.662V170.505z" fill="#1a1a1a" data-original="#000000" style="" class=""/>
	</g>
</g>
<g xmlns="http://www.w3.org/2000/svg">
	<g>
		<path d="M445.763,207.694c-4.025,0-7.287,3.262-7.287,7.287v281.885c0,0.309-0.252,0.561-0.562,0.561H74.084    c-0.309,0-0.562-0.252-0.562-0.561V15.134c0-0.309,0.252-0.561,0.562-0.561h248.041v100.954c0,8.49,6.907,15.397,15.397,15.397    h100.954v38.287c-0.001,4.023,3.261,7.285,7.286,7.285c4.025,0,7.287-3.262,7.287-7.287v-45.573c0-0.083-0.009-0.164-0.012-0.246    c-0.003-0.082-0.007-0.163-0.012-0.244c-0.021-0.311-0.055-0.62-0.115-0.923c-0.001-0.003-0.001-0.006-0.001-0.009    c-0.061-0.309-0.15-0.61-0.25-0.907c-0.025-0.076-0.053-0.15-0.081-0.225c-0.106-0.282-0.223-0.558-0.363-0.825    c-0.007-0.014-0.013-0.029-0.02-0.043c-0.148-0.278-0.321-0.544-0.505-0.802c-0.046-0.065-0.094-0.129-0.142-0.192    c-0.196-0.256-0.402-0.505-0.633-0.735L334.564,2.134c-0.23-0.23-0.479-0.437-0.735-0.632c-0.064-0.049-0.129-0.097-0.195-0.144    c-0.257-0.183-0.522-0.355-0.799-0.503c-0.017-0.009-0.035-0.016-0.053-0.025c-0.263-0.137-0.535-0.254-0.813-0.358    c-0.077-0.029-0.155-0.057-0.233-0.083c-0.294-0.099-0.592-0.187-0.898-0.248c-0.012-0.002-0.024-0.003-0.036-0.005    c-0.294-0.057-0.592-0.09-0.893-0.111c-0.087-0.006-0.173-0.01-0.26-0.013C329.571,0.009,329.491,0,329.413,0H74.084    C65.739,0,58.95,6.789,58.95,15.134v481.732c0,8.345,6.789,15.134,15.135,15.134h363.829c8.345,0,15.135-6.789,15.135-15.134    V214.981C453.05,210.957,449.788,207.694,445.763,207.694z M336.699,24.878l91.472,91.472h-90.648    c-0.454,0-0.824-0.37-0.824-0.824V24.878z" fill="#1a1a1a" data-original="#000000" style="" class=""/>
	</g>
</g>
<g xmlns="http://www.w3.org/2000/svg">
	<g>
		<path d="M425.66,357.394c-1.784-1.848-1.784-4.742,0-6.59c4.754-4.922,6.535-11.808,4.764-18.418    c-1.77-6.61-6.755-11.682-13.333-13.568c-2.47-0.708-3.917-3.215-3.295-5.707c1.656-6.64-0.245-13.493-5.084-18.332    c-4.84-4.839-11.693-6.739-18.332-5.083c-2.493,0.625-4.998-0.825-5.707-3.296c-1.886-6.578-6.959-11.563-13.569-13.333    c-6.613-1.773-13.495,0.01-18.417,4.763c-1.848,1.786-4.744,1.784-6.59,0c-4.924-4.755-11.81-6.534-18.418-4.763    c-6.61,1.772-11.682,6.756-13.567,13.334c-0.709,2.469-3.214,3.917-5.708,3.295c-6.643-1.655-13.494,0.245-18.333,5.084    c-4.839,4.839-6.738,11.692-5.083,18.331c0.621,2.493-0.826,5-3.294,5.708c-6.579,1.886-11.564,6.958-13.335,13.568    s0.009,13.495,4.764,18.418c1.784,1.848,1.784,4.742,0,6.59c-4.754,4.922-6.535,11.807-4.765,18.417    c1.771,6.61,6.756,11.683,13.335,13.569c2.469,0.708,3.917,3.215,3.295,5.706c-1.656,6.639,0.244,13.493,5.083,18.332    c4.839,4.84,11.693,6.741,18.333,5.084c0.689-0.17,1.375-0.17,2.027-0.048v63.293c0,3.312,1.85,6.27,4.828,7.72    c1.206,0.587,2.492,0.876,3.77,0.876c1.876,0,3.731-0.622,5.281-1.837l25.083-19.653l25.081,19.651    c2.605,2.043,6.075,2.412,9.053,0.963c2.978-1.45,4.828-4.408,4.828-7.72v-63.293c0.653-0.122,1.338-0.122,2.026,0.049    c6.639,1.654,13.493-0.245,18.332-5.084c4.84-4.839,6.74-11.692,5.084-18.333c-0.622-2.493,0.824-5,3.294-5.707    c6.578-1.887,11.563-6.959,13.334-13.569C432.196,369.201,430.415,362.316,425.66,357.394z M349.391,452.653    c-1.868,0-3.736,0.611-5.293,1.833l-19.094,14.961v-35.242c0.039,0.017,0.081,0.03,0.12,0.047c0.289,0.122,0.584,0.232,0.88,0.341    c0.125,0.046,0.247,0.097,0.374,0.14c0.427,0.146,0.86,0.281,1.301,0.399c0.083,0.022,0.166,0.037,0.248,0.058    c0.336,0.085,0.672,0.168,1.008,0.235c0.102,0.02,0.203,0.032,0.305,0.051c0.318,0.058,0.636,0.116,0.954,0.158    c0.13,0.017,0.259,0.025,0.389,0.04c0.289,0.033,0.578,0.066,0.867,0.086c0.149,0.01,0.298,0.01,0.447,0.017    c0.269,0.012,0.539,0.026,0.808,0.027c0.013,0,0.025,0.001,0.038,0.001c0.037,0,0.074-0.005,0.112-0.005    c0.508-0.003,1.014-0.03,1.517-0.073c0.127-0.011,0.254-0.022,0.381-0.035c0.544-0.057,1.084-0.131,1.619-0.235    c0.03-0.006,0.058-0.014,0.088-0.02c0.508-0.101,1.009-0.227,1.507-0.369c0.122-0.035,0.245-0.07,0.366-0.107    c0.522-0.16,1.038-0.336,1.546-0.54c0.019-0.008,0.037-0.017,0.056-0.025c0.486-0.198,0.963-0.423,1.433-0.662    c0.119-0.06,0.237-0.121,0.355-0.184c0.483-0.258,0.961-0.531,1.424-0.832c0.011-0.007,0.021-0.015,0.032-0.022    c0.451-0.294,0.888-0.615,1.317-0.95c0.111-0.086,0.22-0.173,0.329-0.262c0.434-0.353,0.86-0.719,1.269-1.114    c1.846-1.784,4.74-1.785,6.59,0c0.347,0.335,0.706,0.652,1.072,0.958c4.596,3.838,10.604,5.305,16.478,4.009    c0.289-0.064,0.578-0.125,0.867-0.202c0.023-0.006,0.044-0.014,0.067-0.021c0.415-0.113,0.824-0.238,1.226-0.376    c0.143-0.049,0.281-0.106,0.422-0.158c0.28-0.103,0.559-0.207,0.833-0.322c0.042-0.018,0.087-0.032,0.129-0.05v35.236    l-19.091-14.959C353.126,453.263,351.258,452.653,349.391,452.653z M415.178,367.515c1.682,1.742,1.379,3.742,1.17,4.522    c-0.208,0.781-0.945,2.667-3.273,3.334c-10.055,2.883-15.95,13.092-13.418,23.241c0.586,2.35-0.677,3.931-1.249,4.501    c-0.57,0.571-2.156,1.835-4.501,1.249c-9.08-2.264-18.19,2.224-22.077,10.391c-0.14,0.292-0.275,0.586-0.401,0.884    c-0.077,0.186-0.154,0.372-0.226,0.561c-0.199,0.519-0.385,1.045-0.539,1.582c-0.195,0.68-0.499,1.211-0.844,1.646    c-0.541,0.682-1.189,1.108-1.732,1.355c-0.297,0.135-0.56,0.22-0.755,0.272c-0.355,0.095-0.968,0.201-1.688,0.14    c-0.863-0.074-1.884-0.392-2.835-1.31c-7.527-7.266-19.314-7.266-26.837,0c-0.182,0.176-0.369,0.319-0.555,0.454    c-0.036,0.026-0.071,0.063-0.107,0.088c-0.04,0.027-0.079,0.042-0.119,0.068c-0.332,0.212-0.663,0.364-0.988,0.474    c-0.652,0.22-1.266,0.268-1.777,0.237c-0.403-0.025-0.747-0.089-0.977-0.15c-0.779-0.209-2.664-0.945-3.331-3.274    c-0.136-0.473-0.294-0.938-0.465-1.398c-0.077-0.209-0.164-0.411-0.247-0.616c-0.09-0.218-0.18-0.437-0.278-0.651    c-0.132-0.294-0.273-0.582-0.419-0.866c-0.042-0.081-0.085-0.162-0.128-0.243c-3.341-6.304-9.871-10.23-16.967-10.23    c-1.562,0-3.151,0.19-4.738,0.585c-2.351,0.588-3.932-0.677-4.502-1.249c-0.57-0.57-1.834-2.151-1.248-4.502    c2.529-10.149-3.364-20.358-13.418-23.241c-2.329-0.668-3.066-2.553-3.275-3.332s-0.512-2.78,1.17-4.522    c7.267-7.524,7.267-19.313,0-26.837c-1.682-1.742-1.379-3.743-1.17-4.523c0.209-0.78,0.946-2.664,3.275-3.332    c10.054-2.882,15.948-13.091,13.418-23.242c-0.586-2.349,0.677-3.93,1.248-4.5c0.57-0.571,2.153-1.835,4.502-1.248    c10.15,2.529,20.358-3.364,23.242-13.419c0.667-2.328,2.551-3.065,3.331-3.274c0.778-0.208,2.78-0.513,4.523,1.169    c7.522,7.266,19.311,7.268,26.837,0c1.742-1.682,3.743-1.379,4.522-1.17c0.78,0.209,2.665,0.946,3.332,3.274    c2.882,10.055,13.091,15.95,23.241,13.419c2.346-0.588,3.932,0.677,4.502,1.248c0.571,0.571,1.835,2.151,1.249,4.501    c-2.531,10.15,3.363,20.359,13.418,23.242c2.328,0.667,3.065,2.552,3.274,3.332c0.209,0.779,0.512,2.78-1.17,4.523    C407.91,348.202,407.91,359.991,415.178,367.515z" fill="#1a1a1a" data-original="#000000" style="" class=""/>
	</g>
</g>
<g xmlns="http://www.w3.org/2000/svg">
	<g>
		<path d="M384.853,318.637c-19.555-19.554-51.37-19.553-70.923,0c-19.553,19.553-19.553,51.369,0,70.922    c9.777,9.777,22.62,14.665,35.462,14.665c12.842,0,25.684-4.888,35.46-14.665c0.001,0,0.001,0,0.001,0    C404.407,370.006,404.407,338.19,384.853,318.637z M374.548,379.255c-13.871,13.87-36.441,13.871-50.312,0    c-13.872-13.871-13.872-36.442,0-50.313c6.935-6.935,16.046-10.403,25.157-10.403c9.11,0,18.22,3.468,25.156,10.403    C388.42,342.813,388.42,365.383,374.548,379.255z" fill="#1a1a1a" data-original="#000000" style="" class=""/>
	</g>
</g>
<g xmlns="http://www.w3.org/2000/svg">
	<g>
		<path d="M249.684,379.908h-67.103c-4.025,0-7.287,3.262-7.287,7.287c0,4.025,3.262,7.287,7.287,7.287h67.103    c4.025,0,7.287-3.262,7.287-7.287C256.971,383.17,253.709,379.908,249.684,379.908z" fill="#1a1a1a" data-original="#000000" style="" class=""/>
	</g>
</g>
<g xmlns="http://www.w3.org/2000/svg">
	<g>
		<path d="M137.309,379.909h-23.397c-4.025,0-7.287,3.262-7.287,7.287c0,4.025,3.262,7.287,7.287,7.287h23.397    c4.025,0,7.287-3.262,7.287-7.287C144.596,383.171,141.334,379.909,137.309,379.909z" fill="#1a1a1a" data-original="#000000" style="" class=""/>
	</g>
</g>
<g xmlns="http://www.w3.org/2000/svg">
</g>
<g xmlns="http://www.w3.org/2000/svg">
</g>
<g xmlns="http://www.w3.org/2000/svg">
</g>
<g xmlns="http://www.w3.org/2000/svg">
</g>
<g xmlns="http://www.w3.org/2000/svg">
</g>
<g xmlns="http://www.w3.org/2000/svg">
</g>
<g xmlns="http://www.w3.org/2000/svg">
</g>
<g xmlns="http://www.w3.org/2000/svg">
</g>
<g xmlns="http://www.w3.org/2000/svg">
</g>
<g xmlns="http://www.w3.org/2000/svg">
</g>
<g xmlns="http://www.w3.org/2000/svg">
</g>
<g xmlns="http://www.w3.org/2000/svg">
</g>
<g xmlns="http://www.w3.org/2000/svg">
</g>
<g xmlns="http://www.w3.org/2000/svg">
</g>
<g xmlns="http://www.w3.org/2000/svg">
</g>
</g></svg>
