<?xml version="1.0"?>
<svg xmlns="http://www.w3.org/2000/svg" xmlns:xlink="http://www.w3.org/1999/xlink" xmlns:svgjs="http://svgjs.com/svgjs" version="1.1" width="512" height="512" x="0" y="0" viewBox="0 0 512 512" style="enable-background:new 0 0 512 512" xml:space="preserve" class=""><g>
<g xmlns="http://www.w3.org/2000/svg">
	<g>
		<path d="M123.468,339.619c-17.837,0-32.349,14.512-32.349,32.349c0,17.837,14.512,32.349,32.349,32.349    c17.837,0,32.349-14.512,32.349-32.349C155.817,354.131,141.305,339.619,123.468,339.619z M123.468,389.317    c-9.566,0-17.349-7.783-17.349-17.349c0-9.566,7.783-17.349,17.349-17.349c9.566,0,17.349,7.783,17.349,17.349    C140.817,381.534,133.034,389.317,123.468,389.317z" fill="#ffffff" data-original="#000000" style="" class=""/>
	</g>
</g>
<g xmlns="http://www.w3.org/2000/svg">
	<g>
		<path d="M123.468,360.322c-4.142,0-7.5,3.358-7.5,7.5v8.285c0,4.142,3.358,7.5,7.5,7.5c4.142,0,7.5-3.358,7.5-7.5v-8.285    C130.968,363.68,127.61,360.322,123.468,360.322z" fill="#ffffff" data-original="#000000" style="" class=""/>
	</g>
</g>
<g xmlns="http://www.w3.org/2000/svg">
	<g>
		<path d="M388.534,339.619c-17.837,0-32.349,14.512-32.349,32.349c0,17.837,14.512,32.349,32.349,32.349    c17.837,0,32.349-14.512,32.349-32.349C420.882,354.131,406.371,339.619,388.534,339.619z M388.534,389.317    c-9.566,0-17.349-7.783-17.349-17.349c0-9.566,7.783-17.349,17.349-17.349c9.566,0,17.349,7.783,17.349,17.349    C405.882,381.534,398.1,389.317,388.534,389.317z" fill="#ffffff" data-original="#000000" style="" class=""/>
	</g>
</g>
<g xmlns="http://www.w3.org/2000/svg">
	<g>
		<path d="M388.534,360.322c-4.142,0-7.5,3.358-7.5,7.5v8.285c0,4.142,3.358,7.5,7.5,7.5c4.142,0,7.5-3.358,7.5-7.5v-8.285    C396.034,363.68,392.676,360.322,388.534,360.322z" fill="#ffffff" data-original="#000000" style="" class=""/>
	</g>
</g>
<g xmlns="http://www.w3.org/2000/svg">
	<g>
		<path d="M504.5,347.9h-9.065v-75.333c0-0.697-0.097-1.391-0.289-2.061L462.012,154.54c-0.92-3.22-3.863-5.439-7.211-5.439H338.834    c-10.652,0-19.705,6.959-22.865,16.568h-19.335V90.334c0-4.142-3.358-7.5-7.5-7.5h-24.83c-0.007,0-0.013-0.001-0.019-0.001    c-0.007,0-0.013,0.001-0.019,0.001H105.427c-4.142,0-7.5,3.358-7.5,7.5c0,4.142,3.358,7.5,7.5,7.5h151.358v34.7H39.851v-34.7    H75.24c4.142,0,7.5-3.358,7.5-7.5c0-4.142-3.358-7.5-7.5-7.5H32.37c-0.007,0-0.013-0.001-0.019-0.001    c-0.006,0-0.013,0.001-0.019,0.001H7.5c-4.142,0-7.5,3.358-7.5,7.5v231.934c0,4.142,3.358,7.5,7.5,7.5h9.069V347.9H7.5    c-4.142,0-7.5,3.358-7.5,7.5v33.132c0,4.142,3.358,7.5,7.5,7.5h64.095c9.105,19.547,28.927,33.135,51.873,33.135    c22.945,0,42.767-13.588,51.872-33.134h161.321c9.105,19.546,28.926,33.134,51.872,33.134c22.946,0,42.767-13.588,51.872-33.135    H504.5c4.142,0,7.5-3.358,7.5-7.5V355.4C512,351.258,508.642,347.9,504.5,347.9z M296.634,180.669h18.132V198.8h-18.132V180.669z     M296.634,213.8h18.132v67.835h-18.132V213.8z M296.634,296.635h18.132v18.131h-18.132V296.635z M296.634,329.767h18.132v18.131    h-18.132V329.767z M15,314.768v-0.001V97.834h9.851v42.2c0,4.142,3.358,7.5,7.5,7.5h231.934c4.142,0,7.5-3.358,7.5-7.5v-42.2h9.85    v216.934H48.958c-0.013,0-0.026-0.002-0.039-0.002s-0.026,0.002-0.039,0.002H24.107c-0.013,0-0.026-0.002-0.039-0.002    s-0.026,0.002-0.039,0.002H15z M41.419,329.767V347.9h-9.85v-18.133H41.419z M66.994,381.033H15V362.9h51.995    c-0.473,2.955-0.726,5.982-0.726,9.067C66.269,375.053,66.522,378.079,66.994,381.033z M56.419,347.9v-18.133h28.482    c-5.551,5.077-10.091,11.236-13.304,18.133H56.419z M123.468,414.168c-23.269,0-42.2-18.931-42.2-42.2    c0-23.269,18.931-42.199,42.2-42.199c23.268,0,42.199,18.931,42.199,42.199C165.667,395.237,146.737,414.168,123.468,414.168z     M175.338,347.898c-3.213-6.897-7.753-13.054-13.303-18.131h119.599v18.131H175.338z M332.06,381.034H179.941    c0.473-2.954,0.726-5.981,0.726-9.066c0-3.087-0.254-6.114-0.727-9.07h142.287c0.013,0,0.026,0.002,0.039,0.002    s0.026-0.002,0.039-0.002h9.755c-0.473,2.956-0.727,5.983-0.727,9.07C331.334,375.053,331.587,378.079,332.06,381.034z     M388.534,414.168c-23.269,0-42.2-18.931-42.2-42.2c0-23.269,18.931-42.199,42.2-42.199c23.268,0,42.199,18.931,42.199,42.199    C430.733,395.237,411.802,414.168,388.534,414.168z M388.534,314.768c-22.944,0-42.765,13.586-51.87,33.129h-6.897V173.169    c0-5,4.068-9.068,9.068-9.068h110.309l31.291,109.517V298.2H454.8c-1.989,0-3.897,0.79-5.303,2.197    c-1.407,1.407-2.197,3.314-2.197,5.304l0.001,24.852c0,4.142,3.358,7.5,7.5,7.5h25.633v9.85h-40.029V347.9    C431.3,328.355,411.479,314.768,388.534,314.768z M480.435,313.199v9.852h-18.134v-9.852H480.435z M497,381.033h-51.993    c0.473-2.954,0.726-5.98,0.726-9.065c0-3.086-0.254-6.113-0.726-9.067H497V381.033z" fill="#ffffff" data-original="#000000" style="" class=""/>
	</g>
</g>
<g xmlns="http://www.w3.org/2000/svg">
	<g>
		<path d="M462.036,240.22l-16.566-60.743c-0.89-3.263-3.853-5.526-7.236-5.526h-49.701c-4.142,0-7.5,3.358-7.5,7.5v66.267    c0,1.989,0.79,3.897,2.197,5.303l24.85,24.849c1.407,1.406,3.314,2.196,5.303,2.196H454.8c4.142,0.001,7.5-3.356,7.5-7.499    v-30.373C462.3,241.528,462.211,240.864,462.036,240.22z M447.3,265.067h-30.81l-20.456-20.456v-55.66h36.472l14.795,54.247    L447.3,265.067z" fill="#ffffff" data-original="#000000" style="" class=""/>
	</g>
</g>
<g xmlns="http://www.w3.org/2000/svg">
	<g>
		<path d="M363.685,182.234h-16.567c-4.142,0-7.5,3.358-7.5,7.5c0,4.142,3.358,7.5,7.5,7.5h16.567c4.142,0,7.5-3.358,7.5-7.5    C371.185,185.592,367.827,182.234,363.685,182.234z" fill="#ffffff" data-original="#000000" style="" class=""/>
	</g>
</g>
<g xmlns="http://www.w3.org/2000/svg">
	<g>
		<path d="M363.685,207.085h-16.567c-4.142,0-7.5,3.358-7.5,7.5c0,4.142,3.358,7.5,7.5,7.5h16.567c4.142,0,7.5-3.358,7.5-7.5    C371.185,210.443,367.827,207.085,363.685,207.085z" fill="#ffffff" data-original="#000000" style="" class=""/>
	</g>
</g>
<g xmlns="http://www.w3.org/2000/svg">
	<g>
		<path d="M363.685,231.936h-16.567c-4.142,0-7.5,3.358-7.5,7.5c0,4.142,3.358,7.5,7.5,7.5h16.567c4.142,0,7.5-3.358,7.5-7.5    C371.185,235.294,367.827,231.936,363.685,231.936z" fill="#ffffff" data-original="#000000" style="" class=""/>
	</g>
</g>
<g xmlns="http://www.w3.org/2000/svg">
	<g>
		<path d="M388.534,281.633h-24.849c-4.142,0-7.5,3.358-7.5,7.5c0,4.142,3.358,7.5,7.5,7.5h24.849c4.142,0,7.5-3.358,7.5-7.5    C396.034,284.991,392.676,281.633,388.534,281.633z" fill="#ffffff" data-original="#000000" style="" class=""/>
	</g>
</g>
<g xmlns="http://www.w3.org/2000/svg">
	<g>
		<path d="M90.333,173.951c-4.142,0-7.5,3.358-7.5,7.5v49.699c0,4.142,3.358,7.5,7.5,7.5c4.142,0,7.5-3.358,7.5-7.5v-49.699    C97.833,177.309,94.475,173.951,90.333,173.951z" fill="#ffffff" data-original="#000000" style="" class=""/>
	</g>
</g>
<g xmlns="http://www.w3.org/2000/svg">
	<g>
		<path d="M206.3,173.951c-4.142,0-7.5,3.358-7.5,7.5v49.699c0,4.142,3.358,7.5,7.5,7.5c4.142,0,7.5-3.358,7.5-7.5v-49.699    C213.8,177.309,210.442,173.951,206.3,173.951z" fill="#ffffff" data-original="#000000" style="" class=""/>
	</g>
</g>
<g xmlns="http://www.w3.org/2000/svg">
	<g>
		<path d="M148.318,173.951c-4.142,0-7.5,3.358-7.5,7.5v49.699c0,4.142,3.358,7.5,7.5,7.5c4.142,0,7.5-3.358,7.5-7.5v-49.699    C155.818,177.309,152.46,173.951,148.318,173.951z" fill="#ffffff" data-original="#000000" style="" class=""/>
	</g>
</g>
<g xmlns="http://www.w3.org/2000/svg">
</g>
<g xmlns="http://www.w3.org/2000/svg">
</g>
<g xmlns="http://www.w3.org/2000/svg">
</g>
<g xmlns="http://www.w3.org/2000/svg">
</g>
<g xmlns="http://www.w3.org/2000/svg">
</g>
<g xmlns="http://www.w3.org/2000/svg">
</g>
<g xmlns="http://www.w3.org/2000/svg">
</g>
<g xmlns="http://www.w3.org/2000/svg">
</g>
<g xmlns="http://www.w3.org/2000/svg">
</g>
<g xmlns="http://www.w3.org/2000/svg">
</g>
<g xmlns="http://www.w3.org/2000/svg">
</g>
<g xmlns="http://www.w3.org/2000/svg">
</g>
<g xmlns="http://www.w3.org/2000/svg">
</g>
<g xmlns="http://www.w3.org/2000/svg">
</g>
<g xmlns="http://www.w3.org/2000/svg">
</g>
</g></svg>
