<?xml version="1.0"?>
<svg xmlns="http://www.w3.org/2000/svg" xmlns:xlink="http://www.w3.org/1999/xlink" xmlns:svgjs="http://svgjs.com/svgjs" version="1.1" width="512" height="512" x="0" y="0" viewBox="0 0 512 512" style="enable-background:new 0 0 512 512" xml:space="preserve" class=""><g>
<g xmlns="http://www.w3.org/2000/svg">
	<g>
		<path d="M434.667,256.615v-49.977l22.262,14.809c4.191,2.788,8.994,4.182,13.798,4.182s9.608-1.395,13.799-4.183    c6.96-4.63,11.115-12.384,11.115-20.743s-4.155-16.113-11.115-20.743l-57.393-38.179c-3.346-2.225-7.865-1.318-10.092,2.029    c-2.226,3.347-1.318,7.865,2.029,10.092l57.393,38.179c2.936,1.953,4.62,5.096,4.62,8.622s-1.684,6.669-4.62,8.622    c-3.485,2.317-7.987,2.317-11.471,0l-33.568-22.33c-0.001-0.001-0.003-0.002-0.004-0.003L255.806,70.174l-0.918-0.611    c-0.223-0.148-0.451-0.284-0.681-0.417c-0.046-0.027-0.091-0.058-0.137-0.084c-0.243-0.137-0.491-0.262-0.74-0.381    c-0.035-0.017-0.069-0.037-0.105-0.054c-0.264-0.124-0.532-0.236-0.802-0.341c-0.022-0.008-0.043-0.019-0.065-0.027    c-0.135-0.052-0.273-0.093-0.41-0.14c-3.698-1.27-7.83-0.793-11.193,1.444L30.649,209.327c-3.485,2.317-7.988,2.317-11.471,0    c-2.936-1.953-4.62-5.096-4.62-8.622s1.684-6.669,4.62-8.622L247.821,39.987l133.587,88.864c3.348,2.226,7.866,1.319,10.092-2.029    c2.226-3.347,1.318-7.865-2.029-10.092L254.888,27.203c-4.293-2.856-9.841-2.856-14.133,0l-68.627,45.651V61.029h2.084    c5.213,0,9.454-4.241,9.454-9.454V29.534c0-5.213-4.241-9.454-9.454-9.454H97.358c-5.213,0-9.454,4.241-9.454,9.454v22.041    c0,5.213,4.241,9.454,9.454,9.454h2.083v60.176L11.115,179.96C4.155,184.59,0,192.345,0,200.704s4.155,16.114,11.115,20.744    c8.383,5.576,19.215,5.575,27.597,0l22.262-14.809v128.419c0,4.02,3.259,7.279,7.279,7.279c4.02,0,7.279-3.259,7.279-7.279    V196.955L247.821,82.347l172.288,114.608v54.954c-0.638-0.161-1.28-0.303-1.92-0.454c-0.27-0.064-0.539-0.13-0.81-0.192    c-0.72-0.165-1.442-0.321-2.164-0.472c-0.402-0.085-0.806-0.166-1.209-0.247c-0.668-0.133-1.337-0.264-2.008-0.386    c-0.488-0.089-0.979-0.169-1.469-0.252c-0.612-0.103-1.222-0.211-1.835-0.305c-1.04-0.16-2.084-0.305-3.133-0.438    c-0.478-0.061-0.958-0.11-1.438-0.165c-0.68-0.078-1.36-0.155-2.043-0.222c-0.494-0.048-0.988-0.09-1.483-0.132    c-0.685-0.059-1.371-0.112-2.06-0.159c-0.475-0.032-0.951-0.064-1.427-0.091c-0.751-0.043-1.504-0.075-2.258-0.104    c-0.411-0.016-0.821-0.035-1.232-0.047c-1.099-0.031-2.202-0.049-3.308-0.051c-0.059,0-0.119-0.003-0.178-0.003    c-58.797,0-108.002,41.856-119.384,97.336c-1.626,7.926-2.48,16.13-2.48,24.529c0,1.024,0.013,2.048,0.039,3.071    c0.284,11.437,2.153,22.488,5.393,32.942c0.003,0.01,0.006,0.021,0.009,0.032c0.145,0.467,0.299,0.931,0.45,1.396    c1.092,3.393,2.324,6.74,3.709,10.023h-35.857V248.051c0-8.453-6.877-15.329-15.329-15.329H119.95    c-8.453,0-15.329,6.877-15.329,15.329v169.467H75.532v-36.845c0-4.02-3.259-7.279-7.279-7.279c-4.02,0-7.279,3.259-7.279,7.279    v36.845H31.015c-11.137,0-20.199,9.061-20.199,20.199c0,11.137,9.061,20.199,20.199,20.199h274.76    c21.912,21.047,51.65,34.004,84.36,34.004C457.331,491.92,512,437.251,512,370.055C512,318.567,479.903,274.435,434.667,256.615z     M157.57,82.538l-43.571,28.983V61.029h43.571V82.538z M102.462,34.638h66.646v11.833h-66.646V34.638z M119.178,248.051    c0-0.426,0.346-0.771,0.771-0.771h106.735c0.426,0,0.771,0.346,0.771,0.771v169.467H119.178V248.051z M31.015,443.358    L31.015,443.358c-3.11,0-5.641-2.531-5.641-5.641c0-3.111,2.531-5.641,5.641-5.641h254.198c2.309,3.898,4.835,7.664,7.563,11.282    H31.015z M390.135,477.362c-46.953,0-86.954-30.314-101.472-72.397c-0.13-0.379-0.259-0.757-0.385-1.138    c-0.155-0.466-0.307-0.933-0.456-1.401c-0.244-0.775-0.482-1.552-0.709-2.333c-0.039-0.134-0.081-0.267-0.119-0.401    c-1.819-6.353-3.054-12.88-3.682-19.482c-0.01-0.11-0.019-0.219-0.029-0.329c-0.084-0.912-0.154-1.825-0.215-2.739    c-0.016-0.241-0.032-0.482-0.046-0.724c-0.048-0.813-0.085-1.626-0.115-2.44c-0.01-0.264-0.023-0.527-0.03-0.792    c-0.031-1.043-0.049-2.087-0.049-3.132c0-7.396,0.752-14.62,2.184-21.599c10.023-48.853,53.35-85.708,105.123-85.708    c0.02,0,0.041,0.001,0.061,0.001c1.3,0.001,2.596,0.033,3.89,0.08c0.303,0.011,0.606,0.021,0.908,0.035    c1.252,0.056,2.501,0.132,3.747,0.231c0.305,0.024,0.609,0.055,0.913,0.081c1.062,0.093,2.122,0.203,3.18,0.328    c0.291,0.034,0.584,0.064,0.875,0.1c1.156,0.146,2.307,0.318,3.456,0.501c0.456,0.073,0.911,0.148,1.365,0.227    c1.08,0.187,2.157,0.386,3.23,0.606c0.508,0.104,1.013,0.22,1.518,0.331c0.689,0.152,1.376,0.311,2.062,0.477    c0.851,0.206,1.698,0.421,2.541,0.647c0.628,0.168,1.254,0.338,1.879,0.517c0.7,0.202,1.398,0.409,2.093,0.624    c0.293,0.091,0.585,0.188,0.878,0.281c43.28,13.831,74.71,54.431,74.71,102.239C497.442,429.224,449.304,477.362,390.135,477.362z    " fill="#1a1a1a" data-original="#000000" style="" class=""/>
	</g>
</g>
<g xmlns="http://www.w3.org/2000/svg">
	<g>
		<path d="M462.126,314.223c-3.951-3.681-9.103-5.611-14.496-5.409c-5.397,0.192-10.396,2.475-14.074,6.427l-61.538,66.086    l-18.938-20.605c-7.544-8.206-20.357-8.746-28.564-1.204c-8.206,7.543-8.746,20.357-1.203,28.563l33.725,36.693    c3.801,4.135,9.202,6.517,14.841,6.535h0.042c5.591,0,10.984-2.347,14.794-6.439l76.428-82.078c3.68-3.952,5.601-9.1,5.409-14.496    C468.359,322.9,466.077,317.901,462.126,314.223z M452.489,332.871l-76.428,82.079c-1.066,1.145-2.575,1.802-4.14,1.802v7.279    l-0.018-7.279c-1.571-0.005-3.083-0.672-4.147-1.829l-33.725-36.693c-2.111-2.296-1.96-5.882,0.336-7.993    c1.085-0.997,2.457-1.489,3.826-1.489c1.529,0,3.054,0.615,4.168,1.826l24.262,26.397c1.373,1.494,3.307,2.347,5.336,2.353    c0.008,0,0.016,0,0.024,0c2.02,0,3.95-0.84,5.327-2.319l66.9-71.845c1.029-1.106,2.427-1.744,3.938-1.798    c1.501-0.052,2.95,0.484,4.057,1.514c1.106,1.03,1.745,2.429,1.798,3.939C454.057,330.324,453.519,331.765,452.489,332.871z" fill="#1a1a1a" data-original="#000000" style="" class=""/>
	</g>
</g>
<g xmlns="http://www.w3.org/2000/svg">
	<g>
		<path d="M205.318,313.824c-4.006,0-7.252,3.246-7.252,7.252v14.988c0,4.006,3.246,7.252,7.252,7.252s7.252-3.246,7.252-7.252    v-14.988C212.57,317.07,209.324,313.824,205.318,313.824z" fill="#1a1a1a" data-original="#000000" style="" class=""/>
	</g>
</g>
<g xmlns="http://www.w3.org/2000/svg">
</g>
<g xmlns="http://www.w3.org/2000/svg">
</g>
<g xmlns="http://www.w3.org/2000/svg">
</g>
<g xmlns="http://www.w3.org/2000/svg">
</g>
<g xmlns="http://www.w3.org/2000/svg">
</g>
<g xmlns="http://www.w3.org/2000/svg">
</g>
<g xmlns="http://www.w3.org/2000/svg">
</g>
<g xmlns="http://www.w3.org/2000/svg">
</g>
<g xmlns="http://www.w3.org/2000/svg">
</g>
<g xmlns="http://www.w3.org/2000/svg">
</g>
<g xmlns="http://www.w3.org/2000/svg">
</g>
<g xmlns="http://www.w3.org/2000/svg">
</g>
<g xmlns="http://www.w3.org/2000/svg">
</g>
<g xmlns="http://www.w3.org/2000/svg">
</g>
<g xmlns="http://www.w3.org/2000/svg">
</g>
</g></svg>
