<?xml version="1.0"?>
<svg xmlns="http://www.w3.org/2000/svg" xmlns:xlink="http://www.w3.org/1999/xlink" xmlns:svgjs="http://svgjs.com/svgjs" version="1.1" width="512" height="512" x="0" y="0" viewBox="0 0 512 512" style="enable-background:new 0 0 512 512" xml:space="preserve" class=""><g>
<g xmlns="http://www.w3.org/2000/svg">
	<g>
		<path d="M204.069,440.93C202.21,439.069,199.63,438,197,438c-2.641,0-5.21,1.069-7.07,2.93c-1.86,1.861-2.93,4.44-2.93,7.07    c0,2.64,1.069,5.21,2.93,7.069c1.86,1.86,4.43,2.931,7.07,2.931c2.63,0,5.21-1.07,7.069-2.931C205.93,453.21,207,450.64,207,448    C207,445.37,205.93,442.79,204.069,440.93z" fill="#9f9e9e" data-original="#000000" style="" class=""/>
	</g>
</g>
<g xmlns="http://www.w3.org/2000/svg">
	<g>
		<path d="M502,326.13h-6.12v-50c0-5.522-4.478-10-10-10h-13.974v-6.463c0-0.228-0.013-0.453-0.017-0.681    c0.358-7.261,6.361-13.063,13.709-13.063c5.522,0,10-4.478,10-10c0-5.522-4.478-10-10-10c-9.238,0-17.619,3.734-23.718,9.77    c-6.1-6.035-14.48-9.77-23.718-9.77c-5.522,0-10,4.478-10,10c0,5.522,4.478,10,10,10c7.349,0,13.352,5.802,13.709,13.063    c-0.004,0.227-0.017,0.452-0.017,0.681v6.463H437.88c-5.522,0-10,4.478-10,10v50H414v-53.463C414,254.654,399.346,240,381.333,240    H130.667C112.654,240,98,254.654,98,272.667v53.463H52V306h22c3.235,0,6.271-1.564,8.146-4.2c1.875-2.636,2.361-6.016,1.303-9.072    l-16.623-48C65.432,240.7,61.639,238,57.377,238H26.623c-4.262,0-8.055,2.7-9.449,6.728l-16.623,48    c-1.059,3.057-0.573,6.437,1.303,9.072C3.73,304.435,6.765,306,10,306h22v20.13H10c-5.522,0-10,4.478-10,10V448    c0,5.522,4.478,10,10,10h137.198c5.522,0,10-4.478,10-10c0-5.522-4.478-10-10-10H94v-46.929c0-14.627,7.027-27.641,17.879-35.853    c1.253-0.528,2.371-1.307,3.302-2.27c6.898-4.315,15.04-6.819,23.76-6.819h0.205h233.707h0.205c8.72,0,16.861,2.504,23.76,6.819    c0.931,0.962,2.049,1.742,3.302,2.27c10.853,8.213,17.88,21.226,17.88,35.853V438H246c-5.522,0-10,4.478-10,10    c0,5.522,4.478,10,10,10h256c5.522,0,10-4.478,10-10V336.13C512,330.607,507.522,326.13,502,326.13z M24.046,286l9.696-28h16.516    l9.696,28H24.046z M74,438H20v-35.935h54V438z M74.638,382.066H20V346.13h72.129C82.881,355.759,76.569,368.216,74.638,382.066z     M246,326.13h-88.8v-19.653c0-4.603,3.744-8.347,8.347-8.347h72.106c4.603,0,8.347,3.744,8.347,8.347V326.13z M354.8,326.13H266    v-19.653c0-4.603,3.744-8.347,8.347-8.347h72.106c4.603,0,8.347,3.744,8.347,8.347V326.13z M394,326.13h-19.2v-19.653    c0-15.631-12.716-28.347-28.347-28.347h-72.106c-6.993,0-13.398,2.551-18.347,6.763c-4.949-4.213-11.354-6.763-18.347-6.763    h-72.106c-15.631,0-28.347,12.716-28.347,28.347v19.653H118v-53.463c0-6.984,5.683-12.667,12.667-12.667h250.666    c6.984,0,12.667,5.683,12.667,12.667V326.13z M447.88,286.13h28v40h-28V286.13z M492,438h-54v-35.935h54V438z M492,382.065    h-54.639c-1.931-13.849-8.243-26.307-17.491-35.936H492V382.065z" fill="#9f9e9e" data-original="#000000" style="" class=""/>
	</g>
</g>
<g xmlns="http://www.w3.org/2000/svg">
	<g>
		<path d="M221,54H37c-5.522,0-10,4.478-10,10v120c0,5.522,4.478,10,10,10h184c5.522,0,10-4.478,10-10V64    C231,58.478,226.522,54,221,54z M211,174H47V74h164V174z" fill="#9f9e9e" data-original="#000000" style="" class=""/>
	</g>
</g>
<g xmlns="http://www.w3.org/2000/svg">
	<g>
		<path d="M354.069,56.93C352.21,55.069,349.63,54,347,54s-5.21,1.069-7.07,2.93C338.07,58.791,337,61.37,337,64    s1.069,5.21,2.93,7.069C341.79,72.93,344.37,74,347,74s5.21-1.07,7.069-2.931C355.93,69.21,357,66.63,357,64    S355.93,58.79,354.069,56.93z" fill="#9f9e9e" data-original="#000000" style="" class=""/>
	</g>
</g>
<g xmlns="http://www.w3.org/2000/svg">
	<g>
		<path d="M475,54h-92c-5.522,0-10,4.478-10,10s4.478,10,10,10h82v100H301V74h8.5c5.522,0,10-4.478,10-10c0-5.522-4.478-10-10-10    H291c-5.522,0-10,4.478-10,10v120c0,5.522,4.478,10,10,10h184c5.522,0,10-4.478,10-10V64C485,58.478,480.522,54,475,54z" fill="#9f9e9e" data-original="#000000" style="" class=""/>
	</g>
</g>
<g xmlns="http://www.w3.org/2000/svg">
	<g>
		<path d="M129,85c-21.505,0-39,17.495-39,39s17.495,39,39,39s39-17.495,39-39S150.505,85,129,85z M129,143    c-10.477,0-19-8.523-19-19s8.523-19,19-19s19,8.523,19,19S139.477,143,129,143z" fill="#9f9e9e" data-original="#000000" style="" class=""/>
	</g>
</g>
<g xmlns="http://www.w3.org/2000/svg">
	<g>
		<path d="M425.28,147.25l-32.62-56.5c-1.786-3.094-5.088-5-8.66-5c-3.572,0-6.874,1.906-8.66,5l-32.62,56.5    c-1.786,3.094-1.786,6.906,0,10s5.088,5,8.66,5h65.24c3.572,0,6.874-1.906,8.66-5S427.066,150.344,425.28,147.25z M368.7,142.25    l15.3-26.5l15.3,26.5H368.7z" fill="#9f9e9e" data-original="#000000" style="" class=""/>
	</g>
</g>
<g xmlns="http://www.w3.org/2000/svg">
</g>
<g xmlns="http://www.w3.org/2000/svg">
</g>
<g xmlns="http://www.w3.org/2000/svg">
</g>
<g xmlns="http://www.w3.org/2000/svg">
</g>
<g xmlns="http://www.w3.org/2000/svg">
</g>
<g xmlns="http://www.w3.org/2000/svg">
</g>
<g xmlns="http://www.w3.org/2000/svg">
</g>
<g xmlns="http://www.w3.org/2000/svg">
</g>
<g xmlns="http://www.w3.org/2000/svg">
</g>
<g xmlns="http://www.w3.org/2000/svg">
</g>
<g xmlns="http://www.w3.org/2000/svg">
</g>
<g xmlns="http://www.w3.org/2000/svg">
</g>
<g xmlns="http://www.w3.org/2000/svg">
</g>
<g xmlns="http://www.w3.org/2000/svg">
</g>
<g xmlns="http://www.w3.org/2000/svg">
</g>
</g></svg>
