<?xml version="1.0"?>
<svg xmlns="http://www.w3.org/2000/svg" xmlns:xlink="http://www.w3.org/1999/xlink" xmlns:svgjs="http://svgjs.com/svgjs" version="1.1" width="512" height="512" x="0" y="0" viewBox="0 0 512 512" style="enable-background:new 0 0 512 512" xml:space="preserve" class=""><g><g xmlns="http://www.w3.org/2000/svg"><g><path d="m502.112 311.347v-32.467c0-.681-.073-1.375-.21-2.043l-3.684-18.686c-2.018-10.231-9.345-18.841-19.122-22.468l-49.543-18.378-28.597-50.34c-6.042-10.638-19.069-18.358-30.974-18.358h-60.429v-34.724c0-5.522-4.477-10-10-10h-99.04c-5.523 0-10 4.478-10 10s4.477 10 10 10h89.04v184.721h-257.466v-184.721h80.439c5.523 0 10-4.478 10-10s-4.477-10-10-10h-90.439c-5.523 0-10 4.478-10 10v196.334c-7.1 3.052-12.087 10.111-12.087 18.316v20.45c0 10.995 8.94 19.939 19.93 19.939h44.031c4.858 22.377 24.806 39.194 48.617 39.194s43.76-16.817 48.617-39.194h172.905c4.858 22.377 24.806 39.194 48.617 39.194s43.76-16.817 48.617-39.194h60.734c10.99 0 19.93-8.944 19.93-19.939v-20.45c.002-7.325-3.982-13.722-9.886-17.186zm-40.524-12.606c0-5.438 4.424-9.861 9.861-9.861h10.663v19.724h-10.662c-5.438 0-9.862-4.424-9.862-9.863zm-90.7-130.09c4.615.439 10.34 4.079 12.677 8.193l21.91 38.569h-52.695v-46.807s17.801.016 18.108.045zm-61.335-.045h23.228v48.465c0 10.113 8.228 18.342 18.342 18.342h69.739l51.278 19.021c3.301 1.225 5.775 4.131 6.456 7.585l1.353 6.86h-8.499c-16.466 0-29.861 13.396-29.861 29.862 0 3.455.597 6.772 1.681 9.861h-133.717zm33.31 159.998c-4.472 5.972-7.592 12.993-9.005 20.319h-172.417c-1.41-7.324-4.536-14.349-9.005-20.319zm-322.863 0h52.723c-4.477 5.97-7.596 13.003-9.007 20.33l-43.716.049zm92.579 59.513c-16.408 0-29.757-13.349-29.757-29.757 0-16.196 13.573-29.756 29.758-29.757 16.408 0 29.756 13.349 29.756 29.757-.001 16.409-13.349 29.757-29.757 29.757zm270.14 0c-16.408 0-29.757-13.349-29.757-29.757 0-16.2 13.562-29.757 29.757-29.757 16.408 0 29.756 13.349 29.756 29.757.001 16.409-13.348 29.757-29.756 29.757zm48.863-39.194c-1.41-7.324-4.536-14.349-9.005-20.319h69.423l.07 20.319z" fill="#fddc51" data-original="#000000" style="" class=""/><path d="m360.922 255.249h-18.142c-5.523 0-10 4.478-10 10s4.477 10 10 10h18.142c5.523 0 10-4.478 10-10s-4.477-10-10-10z" fill="#fddc51" data-original="#000000" style="" class=""/><path d="m147.59 117.71c2.096 5.028 8.017 7.497 13.06 5.41 5.035-2.084 7.475-8.038 5.4-13.061-2.081-5.037-8.015-7.489-13.05-5.41-5.054 2.087-7.476 8.018-5.41 13.061z" fill="#fddc51" data-original="#000000" style="" class=""/></g></g></g></svg>
