<?xml version="1.0"?>
<svg xmlns="http://www.w3.org/2000/svg" xmlns:xlink="http://www.w3.org/1999/xlink" xmlns:svgjs="http://svgjs.com/svgjs" version="1.1" width="512" height="512" x="0" y="0" viewBox="0 0 512 512" style="enable-background:new 0 0 512 512" xml:space="preserve" class=""><g>
<g xmlns="http://www.w3.org/2000/svg">
	<g>
		<path d="M334.206,203.39h-3.605v-58.51c0-5.88-4.784-10.664-10.664-10.664h-55.435c-5.88,0-10.664,4.784-10.664,10.664v58.51    h-3.605c-4.229,0-7.657,3.428-7.657,7.657s3.428,7.657,7.657,7.657h11.262h61.449h11.262c4.229,0,7.657-3.428,7.657-7.657    S338.435,203.39,334.206,203.39z M315.286,203.39h-46.135v-53.86h46.135V203.39z" fill="#ffffff" data-original="#000000" style="" class=""/>
	</g>
</g>
<g xmlns="http://www.w3.org/2000/svg">
	<g>
		<path d="M438.895,203.39h-3.605v-58.51c0-5.88-4.784-10.664-10.664-10.664H369.19c-5.88,0-10.664,4.784-10.664,10.664v58.51    h-3.605c-4.229,0-7.657,3.428-7.657,7.657s3.428,7.657,7.657,7.657h11.262h61.449h11.262c4.229,0,7.657-3.428,7.657-7.657    S443.124,203.39,438.895,203.39z M419.975,203.39H373.84v-53.86h46.135V203.39z" fill="#ffffff" data-original="#000000" style="" class=""/>
	</g>
</g>
<g xmlns="http://www.w3.org/2000/svg">
	<g>
		<path d="M438.564,356.526h-75.999c-6.975,0-12.649,5.675-12.649,12.649v61.796c0,4.229,3.428,7.657,7.657,7.657h85.983    c4.229,0,7.657-3.428,7.657-7.657v-61.796C451.213,362.2,445.538,356.526,438.564,356.526z M435.899,423.313H365.23v-51.474    h70.669V423.313z" fill="#ffffff" data-original="#000000" style="" class=""/>
	</g>
</g>
<g xmlns="http://www.w3.org/2000/svg">
	<g>
		<path d="M307.581,397.578c-4.229,0-7.657,3.428-7.657,7.657v13.272c0,4.228,3.428,7.657,7.657,7.657s7.657-3.428,7.657-7.657    v-13.272C315.238,401.006,311.81,397.578,307.581,397.578z" fill="#ffffff" data-original="#000000" style="" class=""/>
	</g>
</g>
<g xmlns="http://www.w3.org/2000/svg">
	<g>
		<path d="M491.992,458.803h-20.81V288.645h5.275c5.952,0,10.794-4.843,10.794-10.794v-18.104c0-5.952-4.842-10.794-10.794-10.794    h-5.275V143.762l10.576,7.035c3.274,2.179,7.027,3.268,10.78,3.268c3.752,0,7.506-1.089,10.779-3.267    c5.437-3.617,8.683-9.674,8.683-16.204c0-6.53-3.245-12.588-8.683-16.205l-40.802-27.142c-3.521-2.342-8.274-1.386-10.616,2.135    c-2.342,3.521-1.386,8.274,2.135,10.616l40.802,27.142c1.671,1.111,1.851,2.785,1.85,3.454c0,0.668-0.18,2.343-1.85,3.454    c-1.396,0.928-3.198,0.929-4.594-0.001l-140.65-93.562c-3.811-2.533-8.734-2.534-12.545,0l-140.649,93.56    c-1.395,0.929-3.199,0.929-4.595,0c-1.67-1.111-1.85-2.785-1.85-3.453c0-0.669,0.18-2.343,1.85-3.454L343.32,30.35l71.003,47.231    c3.522,2.343,8.274,1.387,10.616-2.135c2.342-3.521,1.386-8.274-2.135-10.616l-73.212-48.701c-3.811-2.533-8.734-2.535-12.545,0    l-45.645,30.363v-12.2c0-5.951-4.842-10.792-10.792-10.792h-50.765c-5.951,0-10.792,4.842-10.792,10.792v14.977    c0,5.021,3.452,9.24,8.104,10.439v29.521l-43.835,29.159c-5.437,3.617-8.683,9.675-8.683,16.205    c0.001,6.53,3.246,12.587,8.683,16.203c6.549,4.357,15.012,4.357,21.559,0.001l10.576-7.035v93.054l-86.492-39.365    c-3.112-1.417-6.681-1.416-9.792,0L4.762,249.523C1.969,250.665,0,253.406,0,256.61v21.241c0,5.952,4.842,10.794,10.794,10.794    h6.565v170.36c-9.492,1.299-16.836,9.439-16.836,19.282c0,10.743,8.74,19.484,19.484,19.484h471.985    c10.743,0,19.484-8.741,19.484-19.484C511.476,467.544,502.736,458.803,491.992,458.803z M267.984,62.07L242.47,79.042V60.061    h25.514V62.07z M234.366,38.814L234.366,38.814h41.722v5.932h-0.447h-40.828h-0.447V38.814z M230.77,248.715v-115.14    l112.55-74.869l112.549,74.868v115.378H230.77V248.715z M124.068,212.049l81.083,36.903H42.986L124.068,212.049z M15.314,273.33    v-9.064h456.623v9.064H15.314z M324.558,347.153h-59.504c-7.558,0-13.708,6.15-13.708,13.708v97.942H230.77V288.645h225.098    v170.158H338.265v-97.942C338.265,353.303,332.116,347.153,324.558,347.153z M322.951,362.467v96.336H266.66v-96.336H322.951z     M80.14,366.214H65.237v-12.97c0-1.779,1.447-3.226,3.226-3.226h111.209c1.779,0,3.226,1.447,3.226,3.226v12.97h-54.924    c-4.229,0-7.657,3.428-7.657,7.657s3.429,7.657,7.657,7.657h54.924v16.197H65.237v-16.197H80.14c4.229,0,7.657-3.428,7.657-7.657    S84.369,366.214,80.14,366.214z M182.899,413.04v16.197H65.237V413.04H182.899z M182.899,444.551v14.252H65.237v-14.252H182.899z     M179.672,334.702H68.464c-10.224,0-18.541,8.317-18.541,18.541v105.56H32.674V288.645h182.782v170.158h-17.243v-105.56    C198.213,343.019,189.896,334.702,179.672,334.702z M491.993,482.458H20.008c-2.299,0-4.17-1.871-4.17-4.17s1.87-4.17,4.17-4.17    h471.985c2.299,0,4.17,1.87,4.17,4.17C496.163,480.588,494.292,482.458,491.993,482.458z" fill="#ffffff" data-original="#000000" style="" class=""/>
	</g>
</g>
<g xmlns="http://www.w3.org/2000/svg">
</g>
<g xmlns="http://www.w3.org/2000/svg">
</g>
<g xmlns="http://www.w3.org/2000/svg">
</g>
<g xmlns="http://www.w3.org/2000/svg">
</g>
<g xmlns="http://www.w3.org/2000/svg">
</g>
<g xmlns="http://www.w3.org/2000/svg">
</g>
<g xmlns="http://www.w3.org/2000/svg">
</g>
<g xmlns="http://www.w3.org/2000/svg">
</g>
<g xmlns="http://www.w3.org/2000/svg">
</g>
<g xmlns="http://www.w3.org/2000/svg">
</g>
<g xmlns="http://www.w3.org/2000/svg">
</g>
<g xmlns="http://www.w3.org/2000/svg">
</g>
<g xmlns="http://www.w3.org/2000/svg">
</g>
<g xmlns="http://www.w3.org/2000/svg">
</g>
<g xmlns="http://www.w3.org/2000/svg">
</g>
</g></svg>
