<?xml version="1.0" encoding="utf-8"?>
<!-- Generator: Adobe Illustrator 24.0.0, SVG Export Plug-In . SVG Version: 6.00 Build 0)  -->
<svg version="1.1" id="Слой_1" xmlns="http://www.w3.org/2000/svg" xmlns:xlink="http://www.w3.org/1999/xlink" x="0px" y="0px"
	 viewBox="0 0 1920 1080" style="enable-background:new 0 0 1920 1080;" xml:space="preserve">
<style type="text/css">
	.st0{fill-rule:evenodd;clip-rule:evenodd;}
</style>
<g>
	<path fill="#fddc51" d="M257.5,412.9h64v8.3h-59.2v238.1h729.7v8.2H252.5V412.9H257.5z M1089.3,659.3h165.3V483.7l-80-62.5H470.7v-8.3h707.7
		c28.7,22.4,57.3,44.9,86,67.2v187.4h-175.1V659.3z"/>
	<polygon fill="#ffffff" points="1101.6,608.9 1101.6,466.9 1126.4,466.9 1126.4,545.3 1159.5,507.8 1189.5,507.8 1146.5,554.2 1194.1,608.9 
		1164.1,608.9 1126.4,562.9 1126.4,608.9 	"/>
	<path fill="#ffffff" d="M1026.4,490.1c-3.2-3.1-4.7-6.9-4.7-11.4c0-4.6,1.5-8.4,4.7-11.5c3.1-3.1,6.8-4.6,11.4-4.6c4.5,0,8.3,1.5,11.4,4.6
		c3.1,3.2,4.6,6.9,4.6,11.5c0,4.5-1.5,8.4-4.6,11.4s-6.9,4.6-11.4,4.6C1033.2,494.7,1029.5,493.2,1026.4,490.1L1026.4,490.1z
		 M995.3,608.9v-21.3h31.3v-58.5h-26.3v-21.3h51.1v79.9h31.3v21.3H995.3z"/>
	<path fill="#ffffff" d="M888.5,608.9V507.8h24.8v15.4c7.9-11.3,19.6-17,34.9-17c9.3,0,16.8,3.1,22.4,9.2c5.6,6,8.7,14.6,9.3,25.6h-24.5
		c-0.5-9.7-4.8-14.5-12.7-14.5c-8.3,0-15.3,4.9-20.9,14.6c-5.6,9.7-8.5,22-8.5,37v30.9H888.5z"/>
	<path fill="#ffffff" d="M838.8,580.9c4.4-5.5,6.5-13.1,6.5-22.5c0-9.5-2.1-17-6.5-22.6c-4.3-5.5-10-8.3-16.9-8.3c-6.9,0-12.5,2.8-16.8,8.2
		c-4.3,5.5-6.4,13.1-6.4,22.7c0,9.6,2.1,17.1,6.4,22.6c4.3,5.5,9.9,8.3,16.8,8.3C828.9,589.2,834.6,586.5,838.8,580.9L838.8,580.9z
		 M800.9,598.4v10.5H776V466.9h24.8v50.1c2.4-3.1,5.9-5.6,10.5-7.6c4.5-2.1,9.2-3.2,14.1-3.2c14,0,25.2,4.8,33.4,14.5
		c8.2,9.6,12.4,22.2,12.4,37.7c0,16.2-4,29-11.9,38.2c-7.9,9.3-19.2,14-33.9,14c-5.4,0-10.4-1.3-15-3.8
		C805.8,604.3,802.7,601.6,800.9,598.4L800.9,598.4z"/>
	<path fill="#ffffff" d="M684,570.8v-81.1h-25.8v-21.3h50.6v97c0,14,5.1,21,15.3,21c9.1,0,14.7-5.6,16.8-17l21.9,4.4c-1.7,11.9-6,21-12.6,27.3
		c-6.7,6.3-15.4,9.5-26.1,9.5c-12,0-21.7-3.6-29-10.7C687.7,592.8,684,583.1,684,570.8L684,570.8z"/>
	<path fill="#ffffff" d="M632.2,580.2c4.5-5.8,6.8-13.2,6.8-21.8c0-8.7-2.3-16-6.8-21.9c-4.4-6-10.7-9-18.8-9c-8,0-14.4,3-19,9
		c-4.4,6-6.6,13.4-6.6,21.9c0,8.6,2.2,15.8,6.6,21.8c4.7,6,11,9.1,19,9.1C621.5,589.2,627.9,586.2,632.2,580.2L632.2,580.2z
		 M577.6,595.5c-9.3-10-13.8-22.4-13.8-37.1c0-14.7,4.6-27.1,13.8-37.1c9.2-10.1,21.2-15.1,35.8-15.1c14.7,0,26.7,5,35.8,15.1
		c9.3,10,13.8,22.4,13.8,37.1c0,14.7-4.6,27.1-13.8,37.1c-9.2,10-21.2,15.1-35.8,15.1C598.7,610.6,586.7,605.5,577.6,595.5
		L577.6,595.5z"/>
	<path fill="#ffffff" d="M518.7,580.2c4.6-5.8,6.8-13.2,6.8-21.8c0-8.7-2.2-16-6.8-21.9c-4.4-6-10.7-9-18.8-9c-8,0-14.4,3-19,9
		c-4.4,6-6.6,13.4-6.6,21.9c0,8.6,2.2,15.8,6.6,21.8c4.7,6,11,9.1,19,9.1C508,589.2,514.3,586.2,518.7,580.2L518.7,580.2z
		 M464,595.5c-9.3-10-13.8-22.4-13.8-37.1c0-14.7,4.6-27.1,13.8-37.1c9.2-10.1,21.2-15.1,35.8-15.1s26.7,5,35.8,15.1
		c9.3,10,13.8,22.4,13.8,37.1c0,14.7-4.6,27.1-13.8,37.1c-9.2,10-21.2,15.1-35.8,15.1S473.2,605.5,464,595.5L464,595.5z"/>
	<polygon fill="#ffffff" points="342.9,608.9 322.9,507.8 344.9,507.8 353.9,570.4 371.2,513.8 388,513.8 405.3,570.4 414.2,507.8 436.3,507.8 
		416.3,608.9 397,608.9 379.6,549.9 362.1,608.9 	"/>
	<rect fill="#fddc51" x="353.6" y="412.9" class="st0" width="84.1" height="8.3"/>
	<path fill="#fddc51" class="st0" d="M1031.2,659.3c2.3,0,4.2,1.8,4.2,4.1c0,2.2-1.8,4.1-4.2,4.1c-2.2,0-4.1-1.8-4.1-4.1
		C1027.1,661.1,1028.9,659.3,1031.2,659.3L1031.2,659.3z"/>
	<path fill="#fddc51" class="st0" d="M1039.2,659.3c2.2,0,4.1,1.8,4.1,4.1c0,2.2-1.8,4.1-4.1,4.1c-2.3,0-4.2-1.8-4.2-4.1
		C1035.1,661.1,1036.9,659.3,1039.2,659.3L1039.2,659.3z"/>
	<path fill="#fddc51" class="st0" d="M1047.2,659.3c2.2,0,4.1,1.8,4.1,4.1c0,2.2-1.8,4.1-4.1,4.1c-2.2,0-4.1-1.8-4.1-4.1
		C1043.1,661.1,1044.9,659.3,1047.2,659.3L1047.2,659.3z"/>
	<path fill="#ffffff" d="M1329.6,534.3v4.3h-5.4v-45.4h5.4v17.1c1-1.3,2.4-2.4,4.2-3.4c1.7-0.8,3.7-1.2,5.7-1.2c4.6,0,8.2,1.5,10.9,4.5
		c2.5,3.1,3.9,7,3.9,12.1c0,5.1-1.3,9.2-3.9,12.1c-2.6,3.1-6.3,4.6-10.9,4.6c-2,0-3.9-0.5-5.7-1.3
		C1332.1,536.8,1330.7,535.6,1329.6,534.3L1329.6,534.3z M1346.1,530.9c1.8-2.1,2.6-5,2.6-8.6c0-3.5-0.8-6.3-2.6-8.6
		c-1.7-2.1-4.2-3.2-7.1-3.2c-3,0-5.4,1-7.1,3.2c-1.7,2.2-2.6,5.1-2.6,8.6c0,3.6,0.9,6.4,2.6,8.6c1.7,2.1,4.2,3.3,7.1,3.3
		C1342,534.2,1344.4,533,1346.1,530.9L1346.1,530.9z M1364.2,529.3c0-3.5,1.3-6.1,3.8-8c2.5-1.7,6.2-2.7,10.8-2.7h6.5v-1.4
		c0-2.2-0.6-4-1.9-5c-1.3-1.1-3.2-1.6-5.4-1.6c-1.8,0-3.5,0.5-4.8,1.4c-1.4,1-2.3,2.3-2.9,4.1l-4.8-1.3c0.7-2.8,2.2-5,4.5-6.6
		c2.2-1.6,4.9-2.4,7.9-2.4c4,0,7.1,1,9.4,3.1c2.2,2.1,3.4,5.2,3.4,9.4v20.4h-4.3l-0.8-4.6c-1,1.5-2.5,2.8-4.7,3.7
		c-2,0.9-4.3,1.4-6.7,1.4c-3,0-5.3-0.9-7.2-2.7C1365.1,534.7,1364.2,532.3,1364.2,529.3L1364.2,529.3z M1385.2,524.3v-1h-7
		c-2.6,0-4.8,0.5-6.3,1.6c-1.4,1-2.2,2.5-2.2,4.4c0,1.5,0.5,2.7,1.4,3.6c1,0.9,2.2,1.3,3.9,1.3c2.6,0,5-0.8,7.1-2.5
		C1384.2,529.9,1385.2,527.4,1385.2,524.3L1385.2,524.3z M1403.9,529.7l5.1-1.9c0.5,2,1.6,3.7,3.2,4.8c1.6,1.1,3.6,1.6,5.7,1.6
		c2.1,0,3.8-0.4,5-1.2c1.3-0.7,1.9-1.9,1.9-3.4c0-1.5-0.6-2.5-1.7-3.3c-1.1-0.6-3.4-1.2-6.6-1.9c-3.5-0.6-6.1-1.6-7.8-3.1
		c-1.7-1.4-2.5-3.5-2.5-6.2c0-2.9,1-5.1,3.2-6.8c2.1-1.7,4.7-2.5,7.8-2.5c5.5,0,9.5,2.3,11.9,7.1l-4.4,2.9c-1.9-3.5-4.5-5.1-7.7-5.1
		c-1.6,0-3,0.3-4.1,1.1c-1,0.7-1.5,1.7-1.5,3.2c0,1.2,0.6,2.2,1.7,3.1c1.2,0.7,3.2,1.4,5.8,1.9c4,0.8,6.9,1.8,8.8,3.3
		c1.8,1.3,2.7,3.3,2.7,5.9c0,3-1.1,5.4-3.6,7.2c-2.4,1.8-5.4,2.8-8.9,2.8c-3.4,0-6.2-0.8-8.8-2.4
		C1406.5,534.9,1404.8,532.6,1403.9,529.7L1403.9,529.7z M1443.5,529.3c0-3.5,1.3-6.1,3.9-8c2.5-1.7,6.1-2.7,10.8-2.7h6.5v-1.4
		c0-2.2-0.7-4-2-5c-1.3-1.1-3.1-1.6-5.4-1.6c-1.8,0-3.4,0.5-4.8,1.4c-1.3,1-2.3,2.3-2.9,4.1l-4.7-1.3c0.7-2.8,2.1-5,4.5-6.6
		c2.2-1.6,4.9-2.4,7.8-2.4c4.1,0,7.2,1,9.5,3.1c2.2,2.1,3.4,5.2,3.4,9.4v20.4h-4.4l-0.8-4.6c-1,1.5-2.5,2.8-4.6,3.7
		c-2.1,0.9-4.4,1.4-6.7,1.4c-3,0-5.4-0.9-7.2-2.7C1444.5,534.7,1443.5,532.3,1443.5,529.3L1443.5,529.3z M1464.7,524.3v-1h-7
		c-2.7,0-4.8,0.5-6.3,1.6c-1.5,1-2.2,2.5-2.2,4.4c0,1.5,0.4,2.7,1.4,3.6c0.9,0.9,2.2,1.3,3.9,1.3c2.5,0,5-0.8,7-2.5
		C1463.5,529.9,1464.7,527.4,1464.7,524.3L1464.7,524.3z M1488.7,526.3v-27.8h-9v-4.8h14.3v32.6c0,5.2,2.3,7.9,6.8,7.9
		c4.3,0,6.7-2.7,7.5-7.9l4.8,1c-0.5,3.8-1.8,6.6-4,8.7c-2.1,2-4.9,3.1-8.3,3.1c-3.8,0-6.7-1.1-8.9-3.4
		C1489.7,533.5,1488.7,530.3,1488.7,526.3L1488.7,526.3z M1529.1,527.8v-16.7h-8.6v-4.9h8.6v-9.7l5.4-3.4v13.1h11.2v4.9h-11.2v16.5
		c0,4.4,1.8,6.5,5.5,6.5c2.9,0,5.5-1.3,7.9-3.9l2,4.6c-2.7,2.8-6.1,4.2-10,4.2c-3.6,0-6.3-0.9-8.1-2.9
		C1530,534.4,1529.1,531.5,1529.1,527.8L1529.1,527.8z M1332.6,567.2c0-1.2,0.4-2.3,1.2-3.2c0.8-0.9,1.9-1.3,3.2-1.3
		c1.2,0,2.2,0.4,3.2,1.3c0.8,0.8,1.2,1.9,1.2,3.2c0,1.2-0.4,2.2-1.2,3.1c-0.9,0.8-1.9,1.3-3.2,1.3c-1.2,0-2.3-0.5-3.2-1.3
		C1333,569.5,1332.6,568.4,1332.6,567.2L1332.6,567.2z M1323.5,608.1v-4.8h11.1v-22.7h-9.9v-4.8h15.3v27.5h11.9v4.8H1323.5z
		 M1364.2,599.2l5.1-1.9c0.6,2,1.6,3.7,3.3,4.8c1.5,1.1,3.5,1.6,5.7,1.6c2,0,3.8-0.4,5-1.2c1.2-0.7,1.8-1.8,1.8-3.4
		c0-1.5-0.6-2.5-1.7-3.3c-1.1-0.6-3.3-1.2-6.6-1.8c-3.5-0.7-6-1.7-7.7-3.2c-1.8-1.3-2.6-3.5-2.6-6.2c0-2.8,1-5.1,3.2-6.8
		c2.1-1.6,4.8-2.5,7.8-2.5c5.5,0,9.5,2.3,11.9,7.1l-4.4,2.9c-1.8-3.4-4.5-5.1-7.7-5.1c-1.6,0-3,0.3-4,1.1c-1.1,0.7-1.6,1.8-1.6,3.2
		c0,1.2,0.6,2.3,1.8,3.1c1.1,0.8,3.1,1.4,5.7,1.9c4,0.8,6.9,1.8,8.8,3.3c1.9,1.3,2.9,3.3,2.9,5.9c0,3-1.2,5.4-3.7,7.2
		c-2.4,1.8-5.3,2.8-8.8,2.8c-3.4,0-6.3-0.8-8.9-2.4C1366.9,604.5,1365.2,602.2,1364.2,599.2L1364.2,599.2z M1449,595.9v-27.7h-8.9
		v-4.9h14.3v32.6c0,5.3,2.2,7.9,6.7,7.9c4.3,0,6.7-2.5,7.5-7.9l4.9,1c-0.6,3.8-1.9,6.7-4.1,8.7c-2.1,2-4.9,3.1-8.3,3.1
		c-3.8,0-6.7-1.1-8.9-3.4C1450.1,603,1449,599.8,1449,595.9L1449,595.9z M1483.2,598.8c0-3.5,1.3-6.1,3.9-8
		c2.5-1.7,6.1-2.7,10.7-2.7h6.6v-1.4c0-2.2-0.7-3.9-2-5c-1.3-1.1-3.2-1.6-5.4-1.6c-1.8,0-3.5,0.5-4.8,1.5c-1.4,0.9-2.3,2.3-2.9,4
		l-4.8-1.3c0.8-2.8,2.2-5,4.5-6.6c2.3-1.6,4.9-2.4,7.9-2.4c4.1,0,7.1,1,9.4,3.2c2.2,2,3.4,5.1,3.4,9.3v20.4h-4.3l-0.8-4.6
		c-1,1.5-2.5,2.8-4.7,3.7c-2,0.9-4.3,1.4-6.7,1.4c-3,0-5.3-0.9-7.1-2.7C1484.1,604.2,1483.2,601.9,1483.2,598.8L1483.2,598.8z
		 M1504.4,593.8v-1h-7.1c-2.6,0-4.8,0.5-6.2,1.6c-1.5,1-2.3,2.5-2.3,4.4c0,1.5,0.5,2.8,1.4,3.6c1,0.9,2.2,1.3,3.9,1.3
		c2.6,0,5-0.8,7.1-2.5C1503.3,599.4,1504.4,597,1504.4,593.8L1504.4,593.8z M1529.1,597.4v-16.7h-8.6v-4.9h8.6v-9.7l5.4-3.4v13.1
		h11.2v4.9h-11.2v16.5c0,4.4,1.8,6.5,5.5,6.5c2.9,0,5.5-1.2,7.9-3.9l2,4.6c-2.7,2.8-6.1,4.2-10,4.2c-3.6,0-6.3-0.9-8.1-2.9
		C1530,603.9,1529.1,601.1,1529.1,597.4L1529.1,597.4z M1570.7,567.2c0-1.2,0.4-2.3,1.2-3.2c0.9-0.9,1.9-1.3,3.2-1.3
		c1.2,0,2.3,0.4,3.2,1.3c0.8,0.8,1.3,1.9,1.3,3.2c0,1.2-0.5,2.2-1.3,3.1c-0.8,0.8-1.9,1.3-3.2,1.3c-1.2,0-2.2-0.5-3.2-1.3
		C1571.1,569.5,1570.7,568.4,1570.7,567.2L1570.7,567.2z M1561.6,608.1v-4.8h11.2v-22.7h-9.9v-4.8h15.2v27.5h11.9v4.8H1561.6z
		 M1604.1,603.7c-3-3.3-4.4-7.1-4.4-11.8c0-4.6,1.4-8.5,4.4-11.7c3-3.3,6.7-4.9,11.4-4.9c4.8,0,8.6,1.6,11.5,4.9s4.4,7.1,4.4,11.7
		c0,4.7-1.4,8.6-4.4,11.8s-6.7,4.9-11.5,4.9C1610.8,608.6,1607,607,1604.1,603.7L1604.1,603.7z M1623,600.3c1.9-2.2,2.9-5,2.9-8.4
		c0-3.3-0.9-6-2.9-8.4c-1.8-2.2-4.4-3.4-7.5-3.4c-3.1,0-5.6,1.1-7.4,3.4c-1.9,2.3-2.9,5.1-2.9,8.4c0,3.4,0.9,6.1,2.9,8.4
		c1.8,2.3,4.4,3.5,7.4,3.5C1618.6,603.7,1621.2,602.6,1623,600.3L1623,600.3z M1642.1,608.1v-32.3h5.4v6c1.1-2,2.7-3.6,4.7-4.8
		c2-1.1,4.1-1.7,6.2-1.7c3.3,0,5.7,0.9,7.3,2.8c1.7,1.8,2.5,4.3,2.5,7.5v22.5h-5.4v-21.3c0-4.5-1.9-6.6-5.9-6.6
		c-2.7,0-5,1.3-6.8,4.1c-1.7,2.8-2.6,6.3-2.6,10.8v13.1H1642.1z M1405.6,603.7c-3-3.3-4.4-7.1-4.4-11.8c0-4.6,1.4-8.5,4.4-11.7
		s6.8-4.9,11.5-4.9c4.7,0,8.5,1.6,11.4,4.9c3,3.3,4.5,7.1,4.5,11.7c0,4.7-1.5,8.6-4.5,11.8c-3,3.3-6.7,4.9-11.4,4.9
		C1412.4,608.6,1408.6,607,1405.6,603.7L1405.6,603.7z M1424.6,600.3c1.8-2.2,2.9-5,2.9-8.4c0-3.3-1-6-2.9-8.4
		c-1.9-2.2-4.5-3.4-7.5-3.4c-3.2,0-5.6,1.1-7.5,3.4c-1.9,2.3-2.9,5.1-2.9,8.4c0,3.4,0.9,6.1,2.9,8.4c1.9,2.3,4.4,3.5,7.5,3.5
		C1420.2,603.7,1422.7,602.6,1424.6,600.3L1424.6,600.3z"/>
</g>
</svg>
