<?xml version="1.0"?>
<svg xmlns="http://www.w3.org/2000/svg" xmlns:xlink="http://www.w3.org/1999/xlink" xmlns:svgjs="http://svgjs.com/svgjs" version="1.1" width="512" height="512" x="0" y="0" viewBox="0 0 512 512" style="enable-background:new 0 0 512 512" xml:space="preserve"><g>
<g xmlns="http://www.w3.org/2000/svg" transform="translate(1 1)">
	<g>
		<g>
			<path d="M375.133,330.093c-10.24-5.973-22.187-7.68-31.573-5.12c-6.827,1.707-12.8,5.973-17.067,12.8     c-8.533,11.093-19.627,23.04-22.187,24.747c-20.48,13.653-36.693,11.947-53.76-5.12l-89.828-90.616     c-0.419-0.589-0.91-1.117-1.479-1.544c0,0-0.112-0.092-0.316-0.266l-5.657-5.707c-17.067-17.92-18.773-33.28-5.12-53.76     c2.56-2.56,14.507-13.653,24.747-22.187c5.973-4.267,11.093-10.24,12.8-17.067c2.56-9.387,0-20.48-5.973-31.573     c-1.707-2.56-36.693-62.293-69.12-79.36C94.387,46.787,73.907,50.2,61.107,63L39.773,84.333     C-2.893,127-12.28,176.493,13.32,231.107c8.533,17.92,21.333,35.84,37.547,52.053L225.8,458.093     c13.653,13.653,27.307,24.747,41.813,32.427C291.507,504.173,315.4,511,337.587,511c31.573,0,61.44-13.653,87.893-40.107     l21.333-22.187c13.653-12.8,16.213-33.28,7.68-49.493C437.427,366.787,377.693,331.8,375.133,330.093z M434.013,437.613     l-21.333,21.333c-40.107,40.107-85.333,46.08-137.387,17.067c-12.8-6.827-25.6-17.067-37.547-29.013L62.813,271.213     c-15.36-15.36-26.453-31.573-34.133-47.787C6.493,175.64,14.173,133.827,51.72,96.28l21.333-21.333     c7.68-7.68,19.627-9.387,28.16-4.267c28.16,14.507,62.293,71.68,62.293,72.533c4.267,6.827,5.973,13.653,4.267,18.773     c-0.853,2.56-2.56,5.12-5.973,6.827l-0.853,0.853c-6.827,6.827-24.747,21.333-28.16,26.453     c-4.953,7.312-8.334,14.557-10.158,21.703c-5.89-11.835-10.554-25.481-12.029-40.476c-0.853-5.12-4.267-8.533-9.387-7.68     c-5.12,0.853-8.533,5.12-7.68,9.387c5.973,59.733,52.907,98.133,54.613,99.84c0,0,0,0,0,0l90.453,90.453     c0.653,0.653,1.307,1.284,1.962,1.903c0.186,0.225,0.385,0.444,0.598,0.657c0.853,1.707,39.253,39.253,98.133,45.227h0.853     c4.267,0,7.68-3.413,8.533-7.68c0-5.12-3.413-8.533-7.68-9.387c-18.05-1.775-34.144-7.144-47.477-13.398     c6.57-1.915,13.289-5.126,20.17-9.642c5.973-3.413,20.48-20.48,26.453-28.16v-0.853c1.707-3.413,3.413-5.12,6.827-5.973     c5.12-0.853,11.947,0.853,18.773,4.267c0,0,58.027,34.133,72.533,62.293C443.4,417.987,441.693,429.933,434.013,437.613z" fill="#ffffff" data-original="#000000" style=""/>
			<path d="M365.747-1C285.533-1,220.68,63.853,220.68,144.067c0,23.04,5.12,46.08,16.213,65.707L220.68,278.04     c-0.853,3.413,0,6.827,2.56,8.533c1.707,1.707,3.413,2.56,5.973,2.56c0.853,0,1.707,0,2.56,0l63.147-18.773     c21.333,11.947,46.08,18.773,70.827,18.773c80.213,0,145.067-64.853,145.067-145.067S445.96-1,365.747-1z M365.747,271.213     c-23.04,0-46.08-5.973-65.707-17.92c-0.853-0.853-2.56-0.853-4.267-0.853c-0.853,0-1.707,0.853-2.56,0.853l-52.907,15.36     l13.653-57.173c0.853-1.707,0-4.267-0.853-5.973c-10.24-18.773-15.36-40.107-15.36-61.44c0-70.827,57.173-128,128-128     s128,56.32,128,127.147S436.573,271.213,365.747,271.213z" fill="#ffffff" data-original="#000000" style=""/>
			<path d="M306.013,101.4H425.48c5.12,0,8.533-3.413,8.533-8.533c0-5.12-3.413-8.533-8.533-8.533H306.013     c-5.12,0-8.533,3.413-8.533,8.533C297.48,97.987,300.893,101.4,306.013,101.4z" fill="#ffffff" data-original="#000000" style=""/>
			<path d="M442.547,135.533h-153.6c-5.12,0-8.533,3.413-8.533,8.533c0,5.12,3.413,8.533,8.533,8.533h153.6     c5.12,0,8.533-3.413,8.533-8.533C451.08,138.947,447.667,135.533,442.547,135.533z" fill="#ffffff" data-original="#000000" style=""/>
			<path d="M425.48,186.733H306.013c-5.12,0-8.533,3.413-8.533,8.533s3.413,8.533,8.533,8.533H425.48     c5.12,0,8.533-3.413,8.533-8.533S430.6,186.733,425.48,186.733z" fill="#ffffff" data-original="#000000" style=""/>
		</g>
	</g>
</g>
<g xmlns="http://www.w3.org/2000/svg">
</g>
<g xmlns="http://www.w3.org/2000/svg">
</g>
<g xmlns="http://www.w3.org/2000/svg">
</g>
<g xmlns="http://www.w3.org/2000/svg">
</g>
<g xmlns="http://www.w3.org/2000/svg">
</g>
<g xmlns="http://www.w3.org/2000/svg">
</g>
<g xmlns="http://www.w3.org/2000/svg">
</g>
<g xmlns="http://www.w3.org/2000/svg">
</g>
<g xmlns="http://www.w3.org/2000/svg">
</g>
<g xmlns="http://www.w3.org/2000/svg">
</g>
<g xmlns="http://www.w3.org/2000/svg">
</g>
<g xmlns="http://www.w3.org/2000/svg">
</g>
<g xmlns="http://www.w3.org/2000/svg">
</g>
<g xmlns="http://www.w3.org/2000/svg">
</g>
<g xmlns="http://www.w3.org/2000/svg">
</g>
</g></svg>
