<?xml version="1.0"?>
<svg xmlns="http://www.w3.org/2000/svg" xmlns:xlink="http://www.w3.org/1999/xlink" xmlns:svgjs="http://svgjs.com/svgjs" version="1.1" width="512" height="512" x="0" y="0" viewBox="0 0 209.28 209.28" style="enable-background:new 0 0 512 512" xml:space="preserve" class=""><g>
<g xmlns="http://www.w3.org/2000/svg">
	<path d="M104.641,0C46.943,0,0.002,46.94,0.002,104.637c0,57.701,46.941,104.643,104.639,104.643   c57.697,0,104.637-46.943,104.637-104.643C209.278,46.94,162.338,0,104.641,0z M104.641,194.28   c-49.427,0-89.639-40.214-89.639-89.643C15.002,55.211,55.214,15,104.641,15c49.426,0,89.637,40.211,89.637,89.637   C194.278,154.066,154.067,194.28,104.641,194.28z" fill="#A3A3A3" data-original="#000000" style="" class=""/>
	<path d="M158.445,102.886h-49.174V49.134c0-4.142-3.357-7.5-7.5-7.5c-4.142,0-7.5,3.358-7.5,7.5v61.252c0,4.142,3.358,7.5,7.5,7.5   h56.674c4.143,0,7.5-3.358,7.5-7.5C165.945,106.244,162.587,102.886,158.445,102.886z" fill="#A3A3A3" data-original="#000000" style="" class=""/>
</g>
<g xmlns="http://www.w3.org/2000/svg">
</g>
<g xmlns="http://www.w3.org/2000/svg">
</g>
<g xmlns="http://www.w3.org/2000/svg">
</g>
<g xmlns="http://www.w3.org/2000/svg">
</g>
<g xmlns="http://www.w3.org/2000/svg">
</g>
<g xmlns="http://www.w3.org/2000/svg">
</g>
<g xmlns="http://www.w3.org/2000/svg">
</g>
<g xmlns="http://www.w3.org/2000/svg">
</g>
<g xmlns="http://www.w3.org/2000/svg">
</g>
<g xmlns="http://www.w3.org/2000/svg">
</g>
<g xmlns="http://www.w3.org/2000/svg">
</g>
<g xmlns="http://www.w3.org/2000/svg">
</g>
<g xmlns="http://www.w3.org/2000/svg">
</g>
<g xmlns="http://www.w3.org/2000/svg">
</g>
<g xmlns="http://www.w3.org/2000/svg">
</g>
</g></svg>
